{
	"asset":{
		"generator":"Khronos glTF Blender I/O v3.6.27",
		"version":"2.0"
	},
	"scene":0,
	"scenes":[
		{
			"name":"Scene",
			"nodes":[
				0
			]
		}
	],
	"nodes":[
		{
			"mesh":0,
			"name":"Big Blue Dragon"
		}
	],
	"materials":[
		{
			"doubleSided":true,
			"name":"Big Blue Dragon",
			"normalTexture":{
				"index":0
			},
			"pbrMetallicRoughness":{
				"baseColorFactor":[
					0.800000011920929,
					0.800000011920929,
					0.800000011920929,
					1
				],
				"metallicFactor":0,
				"roughnessFactor":0.5
			}
		}
	],
	"meshes":[
		{
			"name":"Big Blue Dragon",
			"primitives":[
				{
					"attributes":{
						"POSITION":0,
						"NORMAL":1,
						"TEXCOORD_0":2
					},
					"indices":3,
					"material":0
				}
			]
		}
	],
	"textures":[
		{
			"sampler":0,
			"source":0
		}
	],
	"images":[
		{
			"bufferView":4,
			"mimeType":"image/png",
			"name":"big-blue-dragon-normal"
		}
	],
	"accessors":[
		{
			"bufferView":0,
			"componentType":5126,
			"count":6943,
			"max":[
				1.6629884243011475,
				3.744814395904541,
				2.208489418029785
			],
			"min":[
				0,
				-2.125297784805298,
				-3.0492258071899414
			],
			"type":"VEC3"
		},
		{
			"bufferView":1,
			"componentType":5126,
			"count":6943,
			"type":"VEC3"
		},
		{
			"bufferView":2,
			"componentType":5126,
			"count":6943,
			"type":"VEC2"
		},
		{
			"bufferView":3,
			"componentType":5123,
			"count":39369,
			"type":"SCALAR"
		}
	],
	"bufferViews":[
		{
			"buffer":0,
			"byteLength":83316,
			"byteOffset":0,
			"target":34962
		},
		{
			"buffer":0,
			"byteLength":83316,
			"byteOffset":83316,
			"target":34962
		},
		{
			"buffer":0,
			"byteLength":55544,
			"byteOffset":166632,
			"target":34962
		},
		{
			"buffer":0,
			"byteLength":78738,
			"byteOffset":222176,
			"target":34963
		},
		{
			"buffer":0,
			"byteLength":1602247,
			"byteOffset":300916
		}
	],
	"samplers":[
		{
			"magFilter":9729,
			"minFilter":9987
		}
	],
	"buffers":[
		{
			"byteLength":1903164,
			"uri":"data:application/octet-stream;base64,"
		}
	]
}
